<svg width="16" height="16" viewBox="0 0 16 16" fill="none" xmlns="http://www.w3.org/2000/svg">
<path fill-rule="evenodd" clip-rule="evenodd" d="M13 8C13 10.7614 10.7614 13 8 13C5.23858 13 3 10.7614 3 8C3 5.23858 5.23858 3 8 3C10.7614 3 13 5.23858 13 8ZM15 8C15 11.866 11.866 15 8 15C4.13401 15 1 11.866 1 8C1 4.13401 4.13401 1 8 1C11.866 1 15 4.13401 15 8ZM9.84776 7.23463C9.94827 7.47728 10 7.73736 10 8H12C12 7.47471 11.8965 6.95457 11.6955 6.46927C11.6286 6.30761 11.5512 6.15088 11.4641 6C11.2897 5.69792 11.0761 5.41928 10.8284 5.17157C10.5807 4.92386 10.3021 4.71031 10 4.5359C9.84912 4.44879 9.69239 4.37144 9.53073 4.30448C9.04543 4.10346 8.52529 4 8 4V6C8.26264 6 8.52272 6.05173 8.76537 6.15224C9.00802 6.25275 9.2285 6.40007 9.41421 6.58579C9.59993 6.7715 9.74725 6.99198 9.84776 7.23463Z" fill="black"/>
</svg>
