<svg width="16" height="16" viewBox="0 0 16 16" fill="none" xmlns="http://www.w3.org/2000/svg">
<path fill-rule="evenodd" clip-rule="evenodd" d="M14.5878 12.304C14.8367 12.168 15 11.904 15 11.6V4.4C15 4.096 14.8367 3.832 14.5878 3.696L8.44333 0.144C8.31889 0.0480001 8.16333 0 8 0C7.83667 0 7.68111 0.0480001 7.55667 0.144L1.41223 3.696C1.16334 3.832 1 4.096 1 4.4V11.6C0.999612 11.7449 1.03783 11.8871 1.1105 12.0112C1.18318 12.1353 1.28753 12.2366 1.41223 12.304L7.55667 15.856C7.68111 15.952 7.83667 16 8 16C8.16333 16 8.31889 15.952 8.44333 15.856L10 14.9561V9L13 7.5V13.2219L14.5878 12.304ZM3.36445 4.4L8 1.72L12.6356 4.4L8 7.08L3.36445 4.4ZM7.22222 13.832L2.55556 11.128V5.768L7.22222 8.464V13.832Z" fill="black"/>
</svg>
