<svg width="16" height="16" viewBox="0 0 16 16" fill="none" xmlns="http://www.w3.org/2000/svg">
<path fill-rule="evenodd" clip-rule="evenodd" d="M3.00003 16C1.89546 16 1.00003 15.1046 1.00003 14V4C1.00003 2.89543 1.89546 2 3.00003 2H4.00003C4.00003 0.895431 4.89546 0 6.00003 0H10C11.1046 0 12 0.895431 12 2H13C14.1046 2 15 2.89543 15 4V14C15 15.1046 14.1046 16 13 16H3.00003ZM3.00003 14H13V4H12C12 5.10457 11.1046 6 10 6H6.00003C4.89546 6 4.00003 5.10457 4.00003 4H3.00003V14ZM10 2H6.00003V4H10V2Z" fill="black"/>
</svg>
