<svg width="16" height="16" viewBox="0 0 16 16" fill="none" xmlns="http://www.w3.org/2000/svg">
<path d="M6 10V12.5C6 13.8807 4.88071 15 3.5 15V15C2.11929 15 1 13.8807 1 12.5V12.5C1 11.1193 2.11929 10 3.5 10H6ZM6 10H10M6 10V6M10 10V12.5C10 13.8807 11.1193 15 12.5 15V15C13.8807 15 15 13.8807 15 12.5V12.5C15 11.1193 13.8807 10 12.5 10H10ZM10 10V6M10 6V3.5C10 2.11929 11.1193 1 12.5 1V1C13.8807 1 15 2.11929 15 3.5V3.5C15 4.88071 13.8807 6 12.5 6H10ZM10 6H6M6 6H3.5C2.11929 6 1 4.88071 1 3.5V3.5C1 2.11929 2.11929 1 3.5 1V1C4.88071 1 6 2.11929 6 3.5V6Z" stroke="black" stroke-width="2"/>
</svg>
