<svg width="16" height="16" viewBox="0 0 16 16" fill="none" xmlns="http://www.w3.org/2000/svg">
<path fill-rule="evenodd" clip-rule="evenodd" d="M11.4765 12.8907C10.4957 13.5892 9.29583 14 8 14C4.68629 14 2 11.3137 2 8C2 6.70417 2.41079 5.50428 3.10925 4.52347L11.4765 12.8907ZM12.8907 11.4765L4.52347 3.10925C5.50428 2.41079 6.70417 2 8 2C11.3137 2 14 4.68629 14 8C14 9.29583 13.5892 10.4957 12.8907 11.4765ZM16 8C16 12.4183 12.4183 16 8 16C3.58172 16 0 12.4183 0 8C0 3.58172 3.58172 0 8 0C12.4183 0 16 3.58172 16 8Z" fill="black"/>
</svg>
