<svg width="16" height="16" viewBox="0 0 16 16" fill="none" xmlns="http://www.w3.org/2000/svg">
<mask id="path-1-inside-1_1_68" fill="white">
<path fill-rule="evenodd" clip-rule="evenodd" d="M6 4.96927L2.48207 11H5.20001L4.00002 13H2.48207C0.938489 13 -0.0232546 11.3256 0.754511 9.99226L4.27244 3.96153C5.0442 2.63852 6.9558 2.63851 7.72755 3.96153L8.56338 5.39437L7.38937 7.35106L6 4.96927Z"/>
</mask>
<path d="M2.48207 11L0.754513 9.99226L-1 13H2.48207V11ZM6 4.96927L7.72755 3.96153L6 1L4.27244 3.96153L6 4.96927ZM5.20001 11L6.915 12.029L8.73239 9H5.20001V11ZM4.00002 13V15H5.1324L5.715 14.029L4.00002 13ZM0.754511 9.99226L2.48207 11L0.754511 9.99226ZM4.27244 3.96153L2.54488 2.95379V2.95379L4.27244 3.96153ZM7.72755 3.96153L9.45511 2.95378V2.95378L7.72755 3.96153ZM8.56338 5.39437L10.2784 6.42336L10.8872 5.40871L10.2909 4.38663L8.56338 5.39437ZM7.38937 7.35106L5.66181 8.3588L7.36513 11.2788L9.10436 8.38005L7.38937 7.35106ZM4.20963 12.0077L7.72755 5.97701L4.27244 3.96153L0.754513 9.99226L4.20963 12.0077ZM5.20001 9H2.48207V13H5.20001V9ZM5.715 14.029L6.915 12.029L3.48503 9.97101L2.28503 11.971L5.715 14.029ZM2.48207 15H4.00002V11H2.48207V15ZM-0.973046 8.98452C-2.52858 11.6512 -0.605087 15 2.48207 15V11L2.48207 11L-0.973046 8.98452ZM2.54488 2.95379L-0.973046 8.98452L2.48207 11L6 4.96927L2.54488 2.95379ZM9.45511 2.95378C7.9116 0.307757 4.08839 0.30777 2.54488 2.95379L6 4.96927L6 4.96927L9.45511 2.95378ZM10.2909 4.38663L9.45511 2.95378L6 4.96927L6.83582 6.40211L10.2909 4.38663ZM9.10436 8.38005L10.2784 6.42336L6.84839 4.36538L5.67439 6.32207L9.10436 8.38005ZM4.27244 5.97701L5.66181 8.3588L9.11693 6.34332L7.72755 3.96153L4.27244 5.97701Z" fill="black" mask="url(#path-1-inside-1_1_68)"/>
<path d="M10.1425 6.37281L7.6749 10.4855C7.27499 11.152 7.7551 12 8.5324 12H13.4676C14.2449 12 14.725 11.152 14.3251 10.4855L11.8575 6.37281C11.4691 5.72547 10.5309 5.72547 10.1425 6.37281Z" stroke="black" stroke-width="2"/>
</svg>
