<svg width="16" height="16" viewBox="0 0 16 16" fill="none" xmlns="http://www.w3.org/2000/svg">
<path fill-rule="evenodd" clip-rule="evenodd" d="M15.0858 7.91421C15.8668 7.13316 15.8668 5.86684 15.0858 5.08579L10.9142 0.914212C10.1332 0.133164 8.86683 0.133165 8.08579 0.914214L2.5 6.5C1.94771 7.05229 1.94772 7.94771 2.5 8.5L0.914214 10.0858C0.133166 10.8668 0.133165 12.1332 0.914214 12.9142L3.08579 15.0858C3.86684 15.8668 5.13316 15.8668 5.91421 15.0858L7.5 13.5C8.05229 14.0523 8.94772 14.0523 9.5 13.5L15.0858 7.91421ZM14.5 6.5L9.5 1.5L3.5 7.5L8.5 12.5L14.5 6.5ZM1.5 11.5L3.5 9.5L6.5 12.5L4.5 14.5L1.5 11.5Z" fill="black"/>
<path d="M3.5 9.5L1.5 11.5L4.5 14.5L6.5 12.5L3.5 9.5Z" fill="black"/>
</svg>
