<svg width="16" height="16" viewBox="0 0 16 16" fill="none" xmlns="http://www.w3.org/2000/svg">
<path fill-rule="evenodd" clip-rule="evenodd" d="M12.5858 7L5 7C4.44772 7 4 7.44772 4 8C4 8.55228 4.44772 9 5 9L12.5858 9L10.2929 11.2929C9.90237 11.6834 9.90237 12.3166 10.2929 12.7071C10.6834 13.0976 11.3166 13.0976 11.7071 12.7071L15.7071 8.70711C16.0976 8.31658 16.0976 7.68342 15.7071 7.29289L11.7071 3.29289C11.3166 2.90237 10.6834 2.90237 10.2929 3.29289C9.90237 3.68342 9.90237 4.31658 10.2929 4.70711L12.5858 7ZM6 16L2 16C0.895431 16 1.52762e-07 15.1046 2.01044e-07 14L7.25581e-07 2C7.73863e-07 0.89543 0.895431 -6.60242e-07 2 -6.11959e-07L6 -4.37114e-07C6.55229 -4.12973e-07 7 0.447714 7 1C7 1.55228 6.55228 2 6 2L2 2L2 14L6 14C6.55228 14 7 14.4477 7 15C7 15.5523 6.55228 16 6 16Z" fill="black"/>
</svg>
