<svg width="16" height="16" viewBox="0 0 16 16" fill="none" xmlns="http://www.w3.org/2000/svg">
<path fill-rule="evenodd" clip-rule="evenodd" d="M8.00001 0C8.55229 0 9.00001 0.447715 9.00001 1V5C9.00001 5.55228 8.55229 6 8.00001 6C7.44772 6 7.00001 5.55228 7.00001 5V1C7.00001 0.447715 7.44772 0 8.00001 0ZM6.00001 4.00005L2.00001 7.99999L8.5858 14.5858C9.36685 15.3668 10.6332 15.3668 11.4142 14.5858L14.5859 11.4142C15.3669 10.6332 15.3669 9.36682 14.5859 8.58577L10 3.99991V4.99999C10 5.55228 9.77615 6.05228 9.41422 6.41421L13 9.99999L10 13L5.00001 8.00016L6.58588 6.41429C6.2239 6.05236 6.00001 5.55232 6.00001 4.99999V4.00005ZM2.00001 9L0.750006 10.25C0.0596494 10.9404 0.05965 12.0596 0.750006 12.75C1.44036 13.4404 2.55965 13.4404 3.25001 12.75C3.94036 12.0596 3.94036 10.9404 3.25001 10.25L2.00001 9Z" fill="black"/>
</svg>
