<svg width="16" height="16" viewBox="0 0 16 16" fill="none" xmlns="http://www.w3.org/2000/svg">
<path fill-rule="evenodd" clip-rule="evenodd" d="M14 3H2V13H14V3ZM2 1C0.895431 1 0 1.89543 0 3V13C0 14.1046 0.895431 15 2 15H14C15.1046 15 16 14.1046 16 13V3C16 1.89543 15.1046 1 14 1H2Z" fill="black"/>
<path fill-rule="evenodd" clip-rule="evenodd" d="M4.5 7C5.32843 7 6 6.32843 6 5.5C6 4.67157 5.32843 4 4.5 4C3.67157 4 3 4.67157 3 5.5C3 6.32843 3.67157 7 4.5 7ZM13 12H3L7 8L9 10L13 6V12Z" fill="black"/>
</svg>
