<svg width="16" height="16" viewBox="0 0 16 16" fill="none" xmlns="http://www.w3.org/2000/svg">
<path fill-rule="evenodd" clip-rule="evenodd" d="M9 4C9 4.55228 8.55229 5 8 5C7.44772 5 7 4.55228 7 4C7 3.44772 7.44772 3 8 3C8.55229 3 9 3.44772 9 4ZM9 6.82929C10.1652 6.41746 11 5.30622 11 4C11 2.34315 9.65685 1 8 1C6.34315 1 5 2.34315 5 4C5 5.30622 5.83481 6.41746 7 6.82929V11C7 11.5523 7.44772 12 8 12C8.55229 12 9 11.5523 9 11V6.82929ZM7.55279 15.7764L1.78885 12.8944C1.05181 12.5259 1.05181 11.4741 1.78886 11.1056L6 9V11L4 12L8 14L12 12L10 11V9L14.2111 11.1056C14.9482 11.4741 14.9482 12.5259 14.2111 12.8944L8.44721 15.7764C8.16569 15.9172 7.83431 15.9172 7.55279 15.7764Z" fill="black"/>
</svg>
