<svg width="16" height="16" viewBox="0 0 16 16" fill="none" xmlns="http://www.w3.org/2000/svg">
<path fill-rule="evenodd" clip-rule="evenodd" d="M11 5C11 6.65685 9.65685 8 8 8C6.34315 8 5 6.65685 5 5C5 3.34315 6.34315 2 8 2C9.65685 2 11 3.34315 11 5ZM11.2087 8.83477C12.3037 7.91758 13 6.54011 13 5C13 2.23858 10.7614 0 8 0C5.23858 0 3 2.23858 3 5C3 6.54011 3.69632 7.91758 4.79131 8.83477L3.59835 13.6066L3 16L5.29061 15.0838L8 14L10.7094 15.0838L13 16L12.4016 13.6066L11.2087 8.83477ZM8 10H6.56155L5.88897 12.6903L7.25722 12.143L8 11.8459L8.74278 12.143L10.111 12.6903L9.43845 10H8Z" fill="black"/>
</svg>
