<svg width="16" height="16" viewBox="0 0 16 16" fill="none" xmlns="http://www.w3.org/2000/svg">
<mask id="path-1-inside-1_112_517" fill="white">
<path fill-rule="evenodd" clip-rule="evenodd" d="M15.9448 8.94472C15.6349 8.98117 15.3197 8.99992 15 8.99992C10.5817 8.99992 7 5.4182 7 0.999923C7 0.680293 7.01874 0.365041 7.05519 0.0552063C3.0822 0.522651 0 3.90138 0 8C0 12.4183 3.58172 16 8 16C12.0986 16 15.4774 12.9178 15.9448 8.94472Z"/>
</mask>
<path d="M15.9448 8.94472L17.9311 9.17839L18.2271 6.6624L15.7111 6.95842L15.9448 8.94472ZM7.05519 0.0552063L9.0415 0.288884L9.33749 -2.22711L6.8215 -1.93109L7.05519 0.0552063ZM15.7111 6.95842C15.4786 6.98577 15.2414 6.99992 15 6.99992V10.9999C15.3979 10.9999 15.7912 10.9766 16.1785 10.931L15.7111 6.95842ZM15 6.99992C11.6863 6.99992 9 4.31363 9 0.999923H5C5 6.52277 9.47715 10.9999 15 10.9999V6.99992ZM9 0.999923C9 0.758554 9.01415 0.521328 9.0415 0.288884L5.06889 -0.178472C5.02334 0.208754 5 0.602031 5 0.999923H9ZM2 8C2 4.92746 4.31124 2.39184 7.28889 2.04151L6.8215 -1.93109C1.85316 -1.34654 -2 2.8753 -2 8H2ZM8 14C4.68629 14 2 11.3137 2 8H-2C-2 13.5228 2.47715 18 8 18V14ZM13.9585 8.71104C13.6082 11.6887 11.0726 14 8 14V18C13.1247 18 17.3466 14.1468 17.9311 9.17839L13.9585 8.71104Z" fill="white" mask="url(#path-1-inside-1_112_517)"/>
<path d="M15.9448 8.94472L17.9311 9.17839L18.2271 6.6624L15.7111 6.95842L15.9448 8.94472ZM7.05519 0.0552063L9.0415 0.288884L9.33749 -2.22711L6.8215 -1.93109L7.05519 0.0552063ZM15.7111 6.95842C15.4786 6.98577 15.2414 6.99992 15 6.99992V10.9999C15.3979 10.9999 15.7912 10.9766 16.1785 10.931L15.7111 6.95842ZM15 6.99992C11.6863 6.99992 9 4.31363 9 0.999923H5C5 6.52277 9.47715 10.9999 15 10.9999V6.99992ZM9 0.999923C9 0.758554 9.01415 0.521328 9.0415 0.288884L5.06889 -0.178472C5.02334 0.208754 5 0.602031 5 0.999923H9ZM2 8C2 4.92746 4.31124 2.39184 7.28889 2.04151L6.8215 -1.93109C1.85316 -1.34654 -2 2.8753 -2 8H2ZM8 14C4.68629 14 2 11.3137 2 8H-2C-2 13.5228 2.47715 18 8 18V14ZM13.9585 8.71104C13.6082 11.6887 11.0726 14 8 14V18C13.1247 18 17.3466 14.1468 17.9311 9.17839L13.9585 8.71104Z" fill="black" mask="url(#path-1-inside-1_112_517)"/>
<path d="M15.9448 8.94472L17.9311 9.17839L18.2271 6.6624L15.7111 6.95842L15.9448 8.94472ZM7.05519 0.0552063L9.0415 0.288884L9.33749 -2.22711L6.8215 -1.93109L7.05519 0.0552063ZM15.7111 6.95842C15.4786 6.98577 15.2414 6.99992 15 6.99992V10.9999C15.3979 10.9999 15.7912 10.9766 16.1785 10.931L15.7111 6.95842ZM15 6.99992C11.6863 6.99992 9 4.31363 9 0.999923H5C5 6.52277 9.47715 10.9999 15 10.9999V6.99992ZM9 0.999923C9 0.758554 9.01415 0.521328 9.0415 0.288884L5.06889 -0.178472C5.02334 0.208754 5 0.602031 5 0.999923H9ZM2 8C2 4.92746 4.31124 2.39184 7.28889 2.04151L6.8215 -1.93109C1.85316 -1.34654 -2 2.8753 -2 8H2ZM8 14C4.68629 14 2 11.3137 2 8H-2C-2 13.5228 2.47715 18 8 18V14ZM13.9585 8.71104C13.6082 11.6887 11.0726 14 8 14V18C13.1247 18 17.3466 14.1468 17.9311 9.17839L13.9585 8.71104Z" fill="black" mask="url(#path-1-inside-1_112_517)"/>
</svg>
