<svg width="16" height="16" viewBox="0 0 16 16" fill="none" xmlns="http://www.w3.org/2000/svg">
<path fill-rule="evenodd" clip-rule="evenodd" d="M3 1C1.89543 1 1 1.89543 1 3V13C1 14.1046 1.89543 15 3 15H5C6.10457 15 7 14.1046 7 13V3C7 1.89543 6.10457 1 5 1H3ZM3 13V3H5V13H3Z" fill="black"/>
<path fill-rule="evenodd" clip-rule="evenodd" d="M11 1C9.89543 1 9 1.89543 9 3V13C9 14.1046 9.89543 15 11 15H13C14.1046 15 15 14.1046 15 13V3C15 1.89543 14.1046 1 13 1H11ZM11 13V3H13V13H11Z" fill="black"/>
</svg>
