<svg width="16" height="16" viewBox="0 0 16 16" fill="none" xmlns="http://www.w3.org/2000/svg">
<path fill-rule="evenodd" clip-rule="evenodd" d="M10 5C10 6.10457 9.10457 7 8 7C6.89543 7 6 6.10457 6 5C6 3.89543 6.89543 3 8 3C9.10457 3 10 3.89543 10 5ZM12 5C12 7.20914 10.2091 9 8 9C5.79086 9 4 7.20914 4 5C4 2.79086 5.79086 1 8 1C10.2091 1 12 2.79086 12 5ZM5 13C5 12.4477 5.44772 12 6 12H10C10.5523 12 11 12.4477 11 13V15C11 15.5523 11.4477 16 12 16C12.5523 16 13 15.5523 13 15V13C13 11.3431 11.6569 10 10 10H6C4.34315 10 3 11.3431 3 13V15C3 15.5523 3.44772 16 4 16C4.55228 16 5 15.5523 5 15V13Z" fill="black"/>
</svg>
