<svg width="16" height="16" viewBox="0 0 16 16" fill="none" xmlns="http://www.w3.org/2000/svg">
<path fill-rule="evenodd" clip-rule="evenodd" d="M4.46135 4.46135L5.79289 5.79289C6.42286 6.42286 7.5 5.97669 7.5 5.08579V1C7.5 0.447715 7.05228 0 6.5 0H2.41421C1.52331 0 1.07714 1.07714 1.7071 1.70711L3.05025 3.05025C2.47222 3.62829 1.99641 4.30659 1.64863 5.05718C1.03254 6.38688 0.849305 7.87641 1.12477 9.31579C1.40024 10.7552 2.12051 12.0718 3.18405 13.08C4.24759 14.0883 5.60074 14.7373 7.05276 14.9356C8.50477 15.1339 9.98241 14.8715 11.2774 14.1854C12.5723 13.4992 13.6193 12.424 14.2706 11.1112C14.922 9.7984 15.1448 8.31429 14.9079 6.86808C14.7249 5.75168 14.2751 4.70133 13.6027 3.80363C13.2724 3.36256 12.6339 3.36614 12.2442 3.7558C11.8545 4.14547 11.8647 4.77323 12.1694 5.23236C12.5596 5.82017 12.8232 6.48712 12.9385 7.19078C13.108 8.22469 12.9486 9.2857 12.4829 10.2242C12.0173 11.1628 11.2688 11.9315 10.343 12.422C9.41725 12.9125 8.36087 13.1001 7.3228 12.9584C6.28473 12.8166 5.31734 12.3526 4.55701 11.6318C3.79667 10.911 3.28173 9.9697 3.0848 8.94067C2.88786 7.91165 3.01886 6.84676 3.45931 5.89614C3.70795 5.35952 4.04811 4.8746 4.46135 4.46135Z" fill="black"/>
</svg>
