<svg width="16" height="16" viewBox="0 0 16 16" fill="none" xmlns="http://www.w3.org/2000/svg">
<path d="M2.5 12L1.79289 11.2929C1.40237 11.6834 1.40237 12.3166 1.79289 12.7071L2.5 12ZM6.20711 9.70711C6.59763 9.31658 6.59763 8.68342 6.20711 8.29289C5.81658 7.90237 5.18342 7.90237 4.79289 8.29289L6.20711 9.70711ZM4.79289 15.7071C5.18342 16.0976 5.81658 16.0976 6.20711 15.7071C6.59763 15.3166 6.59763 14.6834 6.20711 14.2929L4.79289 15.7071ZM1 7C1 7.55228 1.44772 8 2 8C2.55228 8 3 7.55228 3 7H1ZM13.5 4V5C13.9045 5 14.2691 4.75636 14.4239 4.38268C14.5787 4.00901 14.4931 3.57889 14.2071 3.29289L13.5 4ZM11.2071 0.292893C10.8166 -0.0976311 10.1834 -0.0976311 9.79292 0.292893C9.4024 0.683417 9.4024 1.31658 9.79292 1.70711L11.2071 0.292893ZM7 11H2.5V13H7V11ZM3.20711 12.7071L6.20711 9.70711L4.79289 8.29289L1.79289 11.2929L3.20711 12.7071ZM1.79289 12.7071L4.79289 15.7071L6.20711 14.2929L3.20711 11.2929L1.79289 12.7071ZM3 7V6H1V7H3ZM4 5H13.5V3H4V5ZM14.2071 3.29289L11.2071 0.292893L9.79292 1.70711L12.7929 4.70711L14.2071 3.29289ZM3 6C3 5.44772 3.44772 5 4 5V3C2.34315 3 1 4.34315 1 6H3Z" fill="black"/>
<path d="M9 10L12 8V14M12 14H9M12 14H15" stroke="black" stroke-width="2"/>
</svg>
