<svg width="16" height="16" viewBox="0 0 16 16" fill="none" xmlns="http://www.w3.org/2000/svg">
<path d="M1.70711 0.292893C1.31658 -0.0976311 0.683417 -0.0976311 0.292893 0.292893C-0.0976311 0.683417 -0.0976311 1.31658 0.292893 1.70711L1.70711 0.292893ZM15 15V16C15.5523 16 16 15.5523 16 15H15ZM11 14C10.4477 14 10 14.4477 10 15C10 15.5523 10.4477 16 11 16V14ZM16 11C16 10.4477 15.5523 10 15 10C14.4477 10 14 10.4477 14 11H16ZM0.292893 14.2929C-0.0976311 14.6834 -0.0976311 15.3166 0.292893 15.7071C0.683417 16.0976 1.31658 16.0976 1.70711 15.7071L0.292893 14.2929ZM15 1H16C16 0.447715 15.5523 0 15 0V1ZM14 5C14 5.55228 14.4477 6 15 6C15.5523 6 16 5.55228 16 5H14ZM11 0C10.4477 0 10 0.447715 10 1C10 1.55228 10.4477 2 11 2V0ZM15 14H11V16H15V14ZM16 15V11H14V15H16ZM1.70711 15.7071L15.7071 1.70711L14.2929 0.292893L0.292893 14.2929L1.70711 15.7071ZM14 1V5H16V1H14ZM15 0H11V2H15V0ZM0.292893 1.70711L5.29289 6.70711L6.70711 5.29289L1.70711 0.292893L0.292893 1.70711ZM9.29289 10.7071L14.2929 15.7071L15.7071 14.2929L10.7071 9.29289L9.29289 10.7071Z" fill="black"/>
</svg>
