<svg width="16" height="16" viewBox="0 0 16 16" fill="none" xmlns="http://www.w3.org/2000/svg">
<path fill-rule="evenodd" clip-rule="evenodd" d="M12.2071 0.792892L11.5 0.0857849L10.7929 0.792892L8.99569 2.5901L2.77514 4.02561L2.1175 4.17737L2.01224 4.84404L0.512239 14.344L0.297791 15.7022L1.65596 15.4878L11.156 13.9878L11.8226 13.8825L11.9744 13.2249L13.4099 7.00431L15.2071 5.20711L15.9142 4.5L15.2071 3.79289L12.2071 0.792892ZM10.2071 4.20711L11.5 2.91421L13.0858 4.5L11.7929 5.79289L11.5901 5.99569L11.5256 6.27514L10.1774 12.1175L4.38159 13.0326L7.48196 9.93225C7.64719 9.97644 7.82084 10 8 10C9.10457 10 10 9.10457 10 8C10 6.89543 9.10457 6 8 6C6.89543 6 6 6.89543 6 8C6 8.17916 6.02356 8.35281 6.06775 8.51804L2.96738 11.6184L3.8825 5.82263L9.72486 4.47439L10.0043 4.4099L10.2071 4.20711Z" fill="black"/>
</svg>
