<svg width="16" height="16" viewBox="0 0 16 16" fill="none" xmlns="http://www.w3.org/2000/svg">
<path fill-rule="evenodd" clip-rule="evenodd" d="M11.5386 4.46135L10.2071 5.79289C9.57714 6.42286 10.0233 7.5 10.9142 7.5L15 7.5C15.5523 7.5 16 7.05229 16 6.5L16 2.41421C16 1.52331 14.9229 1.07714 14.2929 1.70711L12.9497 3.05025C12.6912 2.79174 12.4121 2.5531 12.1145 2.33688C11.2208 1.68757 10.1861 1.25899 9.09504 1.08618C8.00397 0.913373 6.88749 1.00124 5.83688 1.3426C5.10367 1.58084 4.41707 1.93782 3.80363 2.39728C3.36256 2.72764 3.36614 3.36614 3.7558 3.7558C4.14547 4.14547 4.77323 4.13533 5.23235 3.83057C5.60948 3.58023 6.02013 3.38136 6.45355 3.24053C7.20465 2.99649 8.00284 2.93367 8.78286 3.05721C9.56288 3.18075 10.3026 3.48715 10.9415 3.95135C11.1543 4.10593 11.3538 4.27654 11.5386 4.46135ZM12.2442 12.2442C12.6339 12.6339 12.6374 13.2724 12.1964 13.6027C11.5829 14.0622 10.8963 14.4192 10.1631 14.6574C9.11251 14.9988 7.99603 15.0866 6.90496 14.9138C5.81389 14.741 4.7792 14.3124 3.8855 13.6631C3.58791 13.4469 3.30876 13.2083 3.05025 12.9497L1.70711 14.2929C1.07714 14.9229 -5.89085e-07 14.4767 -5.50142e-07 13.5858L-3.71547e-07 9.5C-3.47406e-07 8.94772 0.447714 8.5 1 8.5L5.08579 8.5C5.97669 8.5 6.42286 9.57714 5.79289 10.2071L4.46135 11.5386C4.64616 11.7235 4.84573 11.8941 5.05848 12.0486C5.6974 12.5128 6.43711 12.8192 7.21714 12.9428C7.99716 13.0663 8.79535 13.0035 9.54645 12.7595C9.97987 12.6186 10.3905 12.4198 10.7676 12.1694C11.2268 11.8647 11.8545 11.8545 12.2442 12.2442Z" fill="black"/>
</svg>
