<svg width="16" height="16" viewBox="0 0 16 16" fill="none" xmlns="http://www.w3.org/2000/svg">
<path fill-rule="evenodd" clip-rule="evenodd" d="M11.2798 4.22019L9.70711 5.79289C9.07714 6.42286 8 5.97669 8 5.08579V1C8 0.447715 8.44771 0 9 0H13.0858C13.9767 0 14.4229 1.07714 13.7929 1.70711L12.6934 2.80657C13.3879 3.4342 13.9534 4.19836 14.3514 5.05718C14.9675 6.38688 15.1507 7.87641 14.8752 9.31579C14.5998 10.7552 13.8795 12.0718 12.8159 13.08C11.7524 14.0883 10.3993 14.7373 8.94724 14.9356C7.49522 15.1339 6.01759 14.8715 4.72264 14.1854C3.42769 13.4992 2.38074 12.424 1.7294 11.1112C1.07805 9.7984 0.855148 8.31429 1.09212 6.86808C1.27505 5.75168 1.72491 4.70133 2.39727 3.80363C2.72762 3.36256 3.36614 3.36614 3.7558 3.7558C4.14547 4.14547 4.13532 4.77323 3.83056 5.23236C3.44038 5.82017 3.17676 6.48712 3.06146 7.19078C2.89204 8.22469 3.05139 9.2857 3.51705 10.2242C3.98271 11.1628 4.73119 11.9315 5.65697 12.422C6.58274 12.9125 7.63913 13.1001 8.6772 12.9584C9.71526 12.8166 10.6827 12.3526 11.443 11.6318C12.2033 10.911 12.7183 9.9697 12.9152 8.94067C13.1121 7.91165 12.9811 6.84676 12.5407 5.89614C12.2419 5.25128 11.8109 4.68107 11.2798 4.22019Z" fill="black"/>
</svg>
