<svg width="16" height="16" viewBox="0 0 16 16" fill="none" xmlns="http://www.w3.org/2000/svg">
<path fill-rule="evenodd" clip-rule="evenodd" d="M12.7018 6.1266C13.4602 6.41084 14 7.14238 14 8C14 9.10457 13.1046 10 12 10H9V12H12C14.2091 12 16 10.2091 16 8C16 6.59573 15.2764 5.36047 14.1817 4.64678L12.7018 6.1266ZM3.29818 9.8734C2.5398 9.58916 2 8.85762 2 8C2 6.89543 2.89543 6 4 6H7V4H4C1.79086 4 0 5.79086 0 8C0 9.40427 0.723634 10.6395 1.81835 11.3532L3.29818 9.8734Z" fill="black"/>
<path d="M13 3L3 13" stroke="black" stroke-width="2" stroke-linecap="round"/>
</svg>
