<svg width="16" height="16" viewBox="0 0 16 16" fill="none" xmlns="http://www.w3.org/2000/svg">
<path fill-rule="evenodd" clip-rule="evenodd" d="M3.01118 2.66658C2.35189 3.65328 2 4.81331 2 6V8C0.895431 8 0 8.89543 0 10V14C0 15.1046 0.895431 16 2 16H14C15.1046 16 16 15.1046 16 14V10C16 8.89543 15.1046 8 14 8H4V6L3.9998 6C3.9998 5.20884 4.23441 4.43544 4.67396 3.77761C5.1135 3.11978 5.73825 2.60706 6.46919 2.3043C7.20013 2.00153 8.00444 1.92232 8.7804 2.07667C9.55636 2.23101 10.2691 2.612 10.8286 3.17143L12.2426 1.75736C11.4035 0.918248 10.3344 0.346803 9.17054 0.115291C8.00666 -0.11622 6.80026 0.00259941 5.7039 0.456725C4.60754 0.910851 3.67047 1.67989 3.01118 2.66658ZM2 14H14V10H2V14Z" fill="black"/>
</svg>
