<svg width="16" height="16" viewBox="0 0 16 16" fill="none" xmlns="http://www.w3.org/2000/svg">
<path fill-rule="evenodd" clip-rule="evenodd" d="M9 3.41421V11C9 11.5523 8.55228 12 8 12C7.44772 12 7 11.5523 7 11V3.41421L4.70711 5.70711C4.31658 6.09763 3.68342 6.09763 3.29289 5.70711C2.90237 5.31658 2.90237 4.68342 3.29289 4.29289L7.29289 0.292894C7.68342 -0.0976312 8.31658 -0.0976312 8.70711 0.292894L12.7071 4.29289C13.0976 4.68342 13.0976 5.31658 12.7071 5.70711C12.3166 6.09763 11.6834 6.09763 11.2929 5.70711L9 3.41421ZM0 12V14C0 15.1046 0.895431 16 2 16H14C15.1046 16 16 15.1046 16 14V12C16 11.4477 15.5523 11 15 11C14.4477 11 14 11.4477 14 12V14H2V12C2 11.4477 1.55228 11 1 11C0.447715 11 0 11.4477 0 12Z" fill="black"/>
</svg>
